<svg xmlns="http://www.w3.org/2000/svg" viewBox="0 0 512 512" fill="none">
  <defs>
    <linearGradient id="bg" x1="0" y1="0" x2="1" y2="1">
      <stop offset="0%" stop-color="#1a1a2e"/>
      <stop offset="100%" stop-color="#0a0a0a"/>
    </linearGradient>
    <linearGradient id="note" x1="0" y1="0" x2="1" y2="1">
      <stop offset="0%" stop-color="#ff2d55"/>
      <stop offset="100%" stop-color="#ff6b8a"/>
    </linearGradient>
  </defs>
  <!-- Background rounded square -->
  <rect width="512" height="512" rx="112" fill="url(#bg)"/>
  <!-- Music note -->
  <g transform="translate(160, 108)">
    <path d="M160 24c0-13.255-10.745-24-24-24H24C10.745 0 0 10.745 0 24v208c0 39.765 32.235 72 72 72s72-32.235 72-72V136h64v48c0 39.765 32.235 72 72 72s72-32.235 72-72V24c0-13.255-10.745-24-24-24h-64c-13.255 0-24 10.745-24 24v120c0 13.255 10.745 24 24 24h16v32c0 22.091-17.909 40-40 40s-40-17.909-40-40V24z" fill="url(#note)" transform="translate(72, 60) scale(1.1)"/>
  </g>
</svg>
